<svg xmlns="http://www.w3.org/2000/svg" xmlns:xlink="http://www.w3.org/1999/xlink" viewBox="0 0 64 63.72"><defs><style>.cls-1{opacity:0.27;}</style><symbol id="Calendar" data-name="Calendar" viewBox="0 0 64 63.72"><path d="M59,5.92H55.9V5a5,5,0,0,0-5-5h-.07a5,5,0,0,0-5,5v.92H18.17V5a5,5,0,0,0-5-5H13.1a5,5,0,0,0-5,5v.92H5a5,5,0,0,0-5,5v47.8a5,5,0,0,0,5,5H59a5,5,0,0,0,5-5V10.92A5,5,0,0,0,59,5.92ZM47.82,5a3,3,0,0,1,3-3h.07a3,3,0,0,1,3,3v8.89a3,3,0,0,1-3,3h-.07a3,3,0,0,1-3-3ZM10.1,5a3,3,0,0,1,3-3h.07a3,3,0,0,1,3,3v8.89a3,3,0,0,1-3,3H13.1a3,3,0,0,1-3-3ZM59,59.72H5a1,1,0,0,1-1-1V23.57H60V58.72A1,1,0,0,1,59,59.72Z"/></symbol></defs><title>callender</title><g id="Warstwa_2" data-name="Warstwa 2"><g id="inside"><g id="Pola_edytowalne" data-name="Pola edytowalne"><g id="więcej_info" data-name="więcej info"><g id="data"><g id="kalendarz_Obraz" data-name="kalendarz Obraz" class="cls-1"><use width="64" height="63.72" xlink:href="#Calendar"/></g></g></g></g></g></g></svg>