<svg xmlns="http://www.w3.org/2000/svg" viewBox="0 0 674.24 721.21"><defs><style>.cls-1{fill:gray;}.cls-2{fill:#565656;}</style></defs><title>Historia angaży</title><g id="Warstwa_2" data-name="Warstwa 2"><g id="Warstwa_1-2" data-name="Warstwa 1"><rect class="cls-1" width="219.7" height="721.21"/><rect class="cls-1" x="424.01" width="219.7" height="721.21"/><g id="Warstwa_2-2" data-name="Warstwa 2"><path class="cls-2" d="M653.49,453.94V437.58h20.75V285.76H653.49V269.39h20.75v-10.3H0v10.3H28.48v16.36H0V437.58H28.48v16.36H0v8.18H674.24v-8.18Zm-581.37,0H38.48V437.58H72.12Zm0-168.18H38.48V269.39H72.12Zm43.64,168.18H82.12V437.58h33.64Zm0-168.18H82.12V269.39h33.64ZM160.3,453.94H126.67V437.58H160.3Zm0-168.18H126.67V269.39H160.3Zm45,168.18H171.66V437.58H205.3Zm0-168.18H171.66V269.39H205.3Zm43.64,168.18H215.3V437.58h33.64Zm0-168.18H215.3V269.39h33.64Zm43.64,168.18H258.94V437.58h33.64Zm0-168.18H258.94V269.39h33.64Zm44.55,168.18H303.48V437.58h33.64Zm0-168.18H303.48V269.39h33.64Zm41.37,168.18H344.85V437.58h33.64Zm0-168.18H344.85V269.39h33.64Zm43.64,168.18H388.49V437.58h33.64Zm0-168.18H388.49V269.39h33.64Zm43.64,168.18H432.13V437.58h33.64Zm0-168.18H432.13V269.39h33.64Zm44.55,168.18H476.67V437.58h33.64Zm0-168.18H476.67V269.39h33.64Zm45,168.18H521.67V437.58h33.64Zm0-168.18H521.67V269.39h33.64Zm43.64,168.18H565.31V437.58h33.64Zm0-168.18H565.31V269.39h33.64Zm43.64,168.18H608.94V437.58h33.64Zm0-168.18H608.94V269.39h33.64Z"/></g></g></g></svg>