<svg xmlns="http://www.w3.org/2000/svg" viewBox="0 0 345.85 421.85"><defs><style>.cls-1{opacity:0.28;}.cls-2{fill:#939393;}</style></defs><title>kopiuj do roli</title><g id="Warstwa_2" data-name="Warstwa 2"><g id="Warstwa_2_kopia" data-name="Warstwa 2 kopia" class="cls-1"><path class="cls-2" d="M244.39,93.84H193.69A70.31,70.31,0,0,1,69,93.84H18.29a7.7,7.7,0,0,0-7.68,7.68v253.3a7.7,7.7,0,0,0,7.68,7.68H244.39a7.7,7.7,0,0,0,7.68-7.68V101.52A7.7,7.7,0,0,0,244.39,93.84Z"/><circle class="cls-2" cx="131.34" cy="60.95" r="60.95"/></g><g id="Warstwa_2-2" data-name="Warstwa 2"><path class="cls-2" d="M338.17,153.19H287.46a70.31,70.31,0,0,1-124.69,0H112.06a7.7,7.7,0,0,0-7.68,7.68v253.3a7.7,7.7,0,0,0,7.68,7.68H338.17a7.7,7.7,0,0,0,7.68-7.68V160.87A7.7,7.7,0,0,0,338.17,153.19Z"/><circle class="cls-2" cx="225.12" cy="120.3" r="60.95"/></g><g id="arrow"><g id="Warstwa_4" data-name="Warstwa 4"><path d="M0,237.76c3.62,58.54,58.2,132.51,95.52,129.43,15-4.36,14.74-14.66,5.07-19.62C68.37,331.05,34,298.44,17.75,234.25,14.74,222.34-.74,225.39,0,237.76Z"/></g></g><g id="Warstwa_7" data-name="Warstwa 7"><rect x="86.98" y="313.78" width="13.73" height="53.12" transform="translate(-136.43 72.73) rotate(-25.3)"/></g><g id="Warstwa_8" data-name="Warstwa 8"><circle cx="82.49" cy="316.32" r="6.86" transform="translate(-127.25 65.58) rotate(-25.3)"/></g><g id="Warstwa_7_kopia" data-name="Warstwa 7 kopia"><rect x="77.58" y="339.99" width="13.73" height="53.12" transform="translate(-210.87 599.51) rotate(-115.3)"/></g><g id="Warstwa_8_kopia" data-name="Warstwa 8 kopia"><circle cx="60.25" cy="377.81" r="6.86" transform="translate(-153.92 60.79) rotate(-24.98)"/></g></g></svg>