<svg xmlns="http://www.w3.org/2000/svg" viewBox="0 0 267 32.26"><defs><style>.cls-1{opacity:0.36;}.cls-2,.cls-3{fill:#737373;}.cls-3{font-size:29.68px;}.cls-3,.cls-4{font-family:MyriadPro-Regular, Myriad Pro;}.cls-4{font-size:17.26px;}.cls-4,.cls-5{fill:#fff;}.cls-5{fill-rule:evenodd;}</style></defs><title>Stronicowanie</title><g id="Warstwa_2" data-name="Warstwa 2"><g id="stronicowanie" class="cls-1"><g id="Rounded_Rectangle_11" data-name="Rounded Rectangle 11"><rect class="cls-2" x="31" y="0.42" width="25.5" height="25" rx="2" ry="2"/></g><g id="Rounded_Rectangle_11_copy" data-name="Rounded Rectangle 11 copy"><rect class="cls-2" x="88.72" y="0.42" width="25.5" height="25" rx="2" ry="2"/></g><g id="Rounded_Rectangle_11_copy_2" data-name="Rounded Rectangle 11 copy 2"><rect class="cls-2" x="120.25" y="0.42" width="25.5" height="25" rx="2" ry="2"/></g><g id="Rounded_Rectangle_11_copy_3" data-name="Rounded Rectangle 11 copy 3"><rect class="cls-2" x="150.78" y="0.42" width="25.5" height="25" rx="2" ry="2"/></g><g id="Rounded_Rectangle_11_copy_4" data-name="Rounded Rectangle 11 copy 4"><rect class="cls-2" x="209.5" y="0.42" width="25.5" height="25" rx="2" ry="2"/></g><g id="_..." data-name="..."><text class="cls-3" transform="translate(63.8 24.84) scale(1.02 1)">...</text></g><g id="_...-2" data-name="..."><text class="cls-3" transform="translate(184.59 24.84) scale(1.02 1)">...</text></g><g id="_1" data-name="1"><text class="cls-4" transform="translate(39.92 18.3) scale(1.02 1)">1</text></g><g id="Rounded_Rectangle_11_copy_5" data-name="Rounded Rectangle 11 copy 5"><rect class="cls-2" y="0.42" width="25.5" height="25" rx="2" ry="2"/></g><g id="arrows"><g id="Shape_8" data-name="Shape 8"><polygon class="cls-5" points="13 9.43 10.25 9.43 7 12.92 10.25 16.42 13 16.42 9.75 12.92 13 9.43"/></g><g id="Shape_8_copy" data-name="Shape 8 copy"><polygon class="cls-5" points="19 9.43 16.25 9.43 13 12.92 16.25 16.42 19 16.42 15.75 12.92 19 9.43"/></g></g><g id="Rounded_Rectangle_11_copy_6" data-name="Rounded Rectangle 11 copy 6"><rect class="cls-2" x="242" y="0.42" width="25" height="25" rx="2" ry="2"/></g><g id="arrows_copy" data-name="arrows copy"><g id="Shape_8-2" data-name="Shape 8"><polygon class="cls-5" points="256.95 9.43 254.25 9.43 257.44 12.92 254.25 16.42 256.95 16.42 260.14 12.92 256.95 9.43"/></g><g id="Shape_8_copy-2" data-name="Shape 8 copy"><polygon class="cls-5" points="251.07 9.43 248.37 9.43 251.56 12.92 248.37 16.42 251.07 16.42 254.26 12.92 251.07 9.43"/></g></g><g id="_5" data-name="5"><text class="cls-4" transform="translate(97.63 18.3) scale(1.02 1)">5</text></g><g id="_6" data-name="6"><text class="cls-4" transform="translate(129.17 18.3) scale(1.02 1)">6</text></g><g id="_7" data-name="7"><text class="cls-4" transform="translate(159.71 18.3) scale(1.02 1)">7</text></g><g id="_10" data-name="10"><text class="cls-4" transform="translate(212.56 18.3) scale(1.02 1)">10</text></g></g></g></svg>