<svg xmlns="http://www.w3.org/2000/svg" xmlns:xlink="http://www.w3.org/1999/xlink" viewBox="0 0 141 141"><defs><style>.cls-1{fill:#fff;}</style><symbol id="Delete" data-name="Delete" viewBox="0 0 64 64"><polygon class="cls-1" points="40.45 16.3 32 24.75 23.55 16.3 16.3 23.55 24.75 32 16.3 40.45 23.55 47.7 32 39.24 40.45 47.7 47.7 40.45 39.24 32 47.7 23.55 40.45 16.3"/><path class="cls-1" d="M54.63,9.37a32,32,0,1,0,0,45.25A31.9,31.9,0,0,0,54.63,9.37ZM51.09,51.09A27,27,0,0,1,12.91,12.91a27,27,0,0,1,38.18,0h0a27,27,0,0,1,0,38.18Z"/></symbol></defs><title>x_bar_button</title><g id="Warstwa_2" data-name="Warstwa 2"><g id="Warstwa_2-2" data-name="Warstwa 2"><use id="Delete-3" data-name="Delete" width="64" height="64" transform="scale(2.2)" xlink:href="#Delete"/></g></g></svg>